<?xml version="1.0" encoding="UTF-8" standalone="no"?>
<!-- Created with Inkscape (http://www.inkscape.org/) -->

<svg
   width="147.03633mm"
   height="147.03633mm"
   viewBox="0 0 147.03633 147.03633"
   version="1.1"
   id="svg1"
   xml:space="preserve"
   xmlns="http://www.w3.org/2000/svg"
   xmlns:svg="http://www.w3.org/2000/svg"><defs
     id="defs1" /><g
     id="layer1"
     transform="translate(-21.06938,-29.488356)"><g
       id="g2"><circle
         style="fill:#ffffff;fill-opacity:0;stroke:none;stroke-width:0.114399;paint-order:stroke fill markers"
         id="path1"
         cx="94.587555"
         cy="103.00653"
         r="73.518173" /><g
         id="g1"><path
           style="fill:none;fill-opacity:1;fill-rule:evenodd;stroke:#000000;stroke-width:1.26448;stroke-linecap:round;stroke-linejoin:round;stroke-dasharray:none;stroke-opacity:1"
           d="M 66.282865,133.54705 94.599808,84.554018 h 1.931064 l 28.316938,48.993032 -0.96555,1.67282 H 67.248397 Z"
           id="path4" /><path
           style="fill:none;fill-opacity:1;fill-rule:evenodd;stroke:#000000;stroke-width:1.26448;stroke-linecap:round;stroke-linejoin:round;stroke-dasharray:none;stroke-opacity:1"
           d="m 67.24841,135.21987 h 56.63386"
           id="path5" /><path
           style="fill:#000000;fill-opacity:1;fill-rule:evenodd;stroke:#000000;stroke-width:1.26448;stroke-linecap:round;stroke-linejoin:round;stroke-dasharray:none;stroke-opacity:1"
           d="m 94.899818,89.808847 -23.62816,41.249083 0.774116,1.33824 h 4.83378 l 0.17336,-0.29892 17.9644,-30.98922 1.546459,0.004 17.959917,31.43085 h 4.80496 l 0.77462,-1.33377 -23.654766,-41.3963 z"
           id="path6" /><path
           style="fill:#000000;fill-opacity:1;fill-rule:evenodd;stroke:#000000;stroke-width:1.26448;stroke-linecap:round;stroke-linejoin:round;stroke-dasharray:none;stroke-opacity:1"
           d="M 62.123559,127.89075 85.020925,87.819325 84.052711,86.150982 H 79.729528 L 61.768758,117.58183 H 60.219516 L 42.258694,86.150982 H 37.99551 l -0.96581,1.672807 23.160025,40.071431 z"
           id="path7" /><path
           style="fill:none;fill-opacity:1;fill-rule:evenodd;stroke:#000000;stroke-width:1.26448;stroke-linecap:round;stroke-linejoin:round;stroke-dasharray:none;stroke-opacity:1"
           d="M 130.4323,134.58642 159.00781,85.147301 158.042,83.474506 h -56.89093 l -0.96771,1.668331 28.31568,49.439133 z"
           id="path8" /><path
           style="fill:#000000;fill-opacity:1;fill-rule:evenodd;stroke:#000000;stroke-width:1.26448;stroke-linecap:round;stroke-linejoin:round;stroke-dasharray:none;stroke-opacity:1"
           d="m 130.13426,117.39448 17.84555,-31.243498 h 4.83507 l 0.77488,1.333786 -23.36459,40.910052 h -1.54892 l -23.42989,-40.910052 0.77411,-1.333786 h 4.66887 l 17.89604,31.247948 z"
           id="path9" /><path
           style="fill:none;fill-opacity:1;fill-rule:evenodd;stroke:#000000;stroke-width:1.26448;stroke-linecap:round;stroke-linejoin:round;stroke-dasharray:none;stroke-opacity:1"
           d="M 32.513621,83.474506 H 89.920585 L 90.693056,84.812744 61.9896,134.4749 H 60.444694 L 31.74101,84.812744 Z"
           id="path10" /><path
           style="fill:none;fill-opacity:1;fill-rule:evenodd;stroke:#000000;stroke-width:1.26448;stroke-linecap:round;stroke-linejoin:round;stroke-dasharray:none;stroke-opacity:1"
           d="m 123.88227,135.21987 c 0,0 0,0 0,0 0.61555,0 1.11515,-0.49961 1.11515,-1.11516 0,-0.20522 -0.0544,-0.39705 -0.14959,-0.55763"
           id="path11" /><path
           style="fill:none;fill-opacity:1;fill-rule:evenodd;stroke:#000000;stroke-width:1.26448;stroke-linecap:round;stroke-linejoin:round;stroke-dasharray:none;stroke-opacity:1"
           d="m 128.49903,134.58197 c 0.19245,0.33457 0.55384,0.56206 0.96771,0.56206 0.41222,0 0.7726,-0.22306 0.96556,-0.55764"
           id="path12" /><path
           style="fill:none;fill-opacity:1;fill-rule:evenodd;stroke:#000000;stroke-width:1.26448;stroke-linecap:round;stroke-linejoin:round;stroke-dasharray:none;stroke-opacity:1"
           d="m 79.729478,86.150982 h 4.323183"
           id="path13" /><path
           style="fill:none;fill-opacity:1;fill-rule:evenodd;stroke:#000000;stroke-width:1.26448;stroke-linecap:round;stroke-linejoin:round;stroke-dasharray:none;stroke-opacity:1"
           d="M 31.74101,84.812744 60.444694,134.4749"
           id="path14" /><path
           style="fill:none;fill-opacity:1;fill-rule:evenodd;stroke:#000000;stroke-width:1.26448;stroke-linecap:round;stroke-linejoin:round;stroke-dasharray:none;stroke-opacity:1"
           d="m 114.52376,132.54338 h 4.80496"
           id="path15" /><path
           style="fill:none;fill-opacity:1;fill-rule:evenodd;stroke:#000000;stroke-width:1.26448;stroke-linecap:round;stroke-linejoin:round;stroke-dasharray:none;stroke-opacity:1"
           d="M 37.029738,87.823789 60.189763,127.89522"
           id="path16" /><path
           style="fill:none;fill-opacity:1;fill-rule:evenodd;stroke:#000000;stroke-width:1.26448;stroke-linecap:round;stroke-linejoin:round;stroke-dasharray:none;stroke-opacity:1"
           d="m 76.879604,132.39617 0.17336,-0.29892"
           id="path17" /><path
           style="fill:none;fill-opacity:1;fill-rule:evenodd;stroke:#000000;stroke-width:1.26448;stroke-linecap:round;stroke-linejoin:round;stroke-dasharray:none;stroke-opacity:1"
           d="m 71.271658,131.05793 c -0.0746,0.13383 -0.117601,0.28551 -0.117601,0.4461 0,0.49075 0.399702,0.89221 0.892091,0.89221"
           id="path18" /><path
           style="fill:none;fill-opacity:1;fill-rule:evenodd;stroke:#000000;stroke-width:1.26448;stroke-linecap:round;stroke-linejoin:round;stroke-dasharray:none;stroke-opacity:1"
           d="m 128.67621,128.39482 c 0.15388,0.26769 0.44307,0.45055 0.77424,0.45055 0.33142,0 0.62086,-0.18286 0.77475,-0.45055"
           id="path19" /><path
           style="fill:none;fill-opacity:1;fill-rule:evenodd;stroke:#000000;stroke-width:1.26448;stroke-linecap:round;stroke-linejoin:round;stroke-dasharray:none;stroke-opacity:1"
           d="m 60.189712,127.89522 c 0.19296,0.33015 0.553211,0.55764 0.965557,0.55764 0.414244,0 0.776012,-0.22749 0.96834,-0.56207"
           id="path20" /><path
           style="fill:none;fill-opacity:1;fill-rule:evenodd;stroke:#000000;stroke-width:1.26448;stroke-linecap:round;stroke-linejoin:round;stroke-dasharray:none;stroke-opacity:1"
           d="m 60.219427,117.58183 c 0.153888,0.26769 0.4432,0.45055 0.774622,0.45055 0.33142,0 0.620859,-0.18286 0.77462,-0.45055"
           id="path21" /><path
           style="fill:none;fill-opacity:1;fill-rule:evenodd;stroke:#000000;stroke-width:1.26448;stroke-linecap:round;stroke-linejoin:round;stroke-dasharray:none;stroke-opacity:1"
           d="m 32.513621,83.474506 c -0.492516,0 -0.892092,0.397047 -0.892092,0.892092 0,0.160589 0.04426,0.3122 0.120123,0.446109"
           id="path22" /><path
           style="fill:none;fill-opacity:1;fill-rule:evenodd;stroke:#000000;stroke-width:1.26448;stroke-linecap:round;stroke-linejoin:round;stroke-dasharray:none;stroke-opacity:1"
           d="m 37.99551,86.150982 c -0.615549,0 -1.115145,0.499596 -1.115145,1.115145 0,0.2008 0.05438,0.392495 0.149462,0.557636"
           id="path23" /><path
           style="fill:none;fill-opacity:1;fill-rule:evenodd;stroke:#000000;stroke-width:1.26448;stroke-linecap:round;stroke-linejoin:round;stroke-dasharray:none;stroke-opacity:1"
           d="m 66.282815,133.54705 c -0.09483,0.1606 -0.149588,0.35241 -0.149588,0.55764 0,0.61556 0.499596,1.11515 1.115145,1.11515"
           id="path24" /><path
           style="fill:none;fill-opacity:1;fill-rule:evenodd;stroke:#000000;stroke-width:1.26448;stroke-linecap:round;stroke-linejoin:round;stroke-dasharray:none;stroke-opacity:1"
           d="m 60.444694,134.4749 c 0.154394,0.26314 0.442568,0.44611 0.772472,0.44611 0.329777,0 0.618078,-0.18284 0.772471,-0.44611"
           id="path25" /><path
           style="fill:none;fill-opacity:1;fill-rule:evenodd;stroke:#000000;stroke-width:1.26448;stroke-linecap:round;stroke-linejoin:round;stroke-dasharray:none;stroke-opacity:1"
           d="m 85.020975,87.819325 c 0.09357,-0.165015 0.146933,-0.352411 0.146933,-0.553083 0,-0.61555 -0.499722,-1.115146 -1.115145,-1.115146"
           id="path26" /><path
           style="fill:none;fill-opacity:1;fill-rule:evenodd;stroke:#000000;stroke-width:1.26448;stroke-linecap:round;stroke-linejoin:round;stroke-dasharray:none;stroke-opacity:1"
           d="m 119.32872,132.54338 c 0,0 0,0 0,0 0.49252,0 0.89222,-0.40148 0.89222,-0.8921 0,-0.16059 -0.043,-0.31232 -0.1176,-0.44168"
           id="path27" /><path
           style="fill:none;fill-opacity:1;fill-rule:evenodd;stroke:#000000;stroke-width:1.26448;stroke-linecap:round;stroke-linejoin:round;stroke-dasharray:none;stroke-opacity:1"
           d="m 101.15112,83.474506 h 56.89094"
           id="path28" /><path
           style="fill:none;fill-opacity:1;fill-rule:evenodd;stroke:#000000;stroke-width:1.26448;stroke-linecap:round;stroke-linejoin:round;stroke-dasharray:none;stroke-opacity:1"
           d="M 42.258694,86.150982 H 37.99551"
           id="path29" /><path
           style="fill:none;fill-opacity:1;fill-rule:evenodd;stroke:#000000;stroke-width:1.26448;stroke-linecap:round;stroke-linejoin:round;stroke-dasharray:none;stroke-opacity:1"
           d="m 101.15112,83.474506 c 0,0 0,0 0,0 -0.61555,0 -1.11515,0.499597 -1.11515,1.115146 0,0.200672 0.0531,0.388068 0.14744,0.553083"
           id="path30" /><path
           style="fill:none;fill-opacity:1;fill-rule:evenodd;stroke:#000000;stroke-width:1.26448;stroke-linecap:round;stroke-linejoin:round;stroke-dasharray:none;stroke-opacity:1"
           d="m 72.045824,132.39617 h 4.83378"
           id="path31" /><path
           style="fill:none;fill-opacity:1;fill-rule:evenodd;stroke:#000000;stroke-width:1.26448;stroke-linecap:round;stroke-linejoin:round;stroke-dasharray:none;stroke-opacity:1"
           d="m 96.448617,89.81331 c -0.153887,-0.272116 -0.4432,-0.450535 -0.77462,-0.450535 -0.331042,0 -0.620228,0.178419 -0.774116,0.446109"
           id="path32" /><path
           style="fill:none;fill-opacity:1;fill-rule:evenodd;stroke:#000000;stroke-width:1.26448;stroke-linecap:round;stroke-linejoin:round;stroke-dasharray:none;stroke-opacity:1"
           d="m 96.530897,84.554018 c -0.19296,-0.334581 -0.553336,-0.557635 -0.965556,-0.557635 -0.412222,0 -0.772599,0.223054 -0.965559,0.557635"
           id="path33" /><path
           style="fill:none;fill-opacity:1;fill-rule:evenodd;stroke:#000000;stroke-width:1.26448;stroke-linecap:round;stroke-linejoin:round;stroke-dasharray:none;stroke-opacity:1"
           d="m 147.97981,86.150982 h 4.83507"
           id="path34" /><path
           style="fill:none;fill-opacity:1;fill-rule:evenodd;stroke:#000000;stroke-width:1.26448;stroke-linecap:round;stroke-linejoin:round;stroke-dasharray:none;stroke-opacity:1"
           d="m 106.02048,86.150982 c 0,0 0,0 0,0 -0.49239,0 -0.89209,0.397047 -0.89209,0.892217 0,0.16059 0.043,0.312201 0.1176,0.441684"
           id="path35" /><path
           style="fill:none;fill-opacity:1;fill-rule:evenodd;stroke:#000000;stroke-width:1.26448;stroke-linecap:round;stroke-linejoin:round;stroke-dasharray:none;stroke-opacity:1"
           d="m 90.693069,84.812744 c 0.07587,-0.133778 0.120123,-0.285519 0.120123,-0.446109 0,-0.49517 -0.399702,-0.89209 -0.892218,-0.89209"
           id="path36" /><path
           style="fill:none;fill-opacity:1;fill-rule:evenodd;stroke:#000000;stroke-width:1.26448;stroke-linecap:round;stroke-linejoin:round;stroke-dasharray:none;stroke-opacity:1"
           d="M 42.258694,86.150982 60.219466,117.58183"
           id="path37" /><path
           style="fill:none;fill-opacity:1;fill-rule:evenodd;stroke:#000000;stroke-width:1.26448;stroke-linecap:round;stroke-linejoin:round;stroke-dasharray:none;stroke-opacity:1"
           d="m 106.02048,86.150982 h 4.66887"
           id="path38" /><path
           style="fill:none;fill-opacity:1;fill-rule:evenodd;stroke:#000000;stroke-width:1.26448;stroke-linecap:round;stroke-linejoin:round;stroke-dasharray:none;stroke-opacity:1"
           d="m 159.00781,85.147301 c 0.0949,-0.165015 0.14947,-0.356838 0.14947,-0.557636 0,-0.61555 -0.49959,-1.115146 -1.11515,-1.115146"
           id="path39" /><path
           style="fill:none;fill-opacity:1;fill-rule:evenodd;stroke:#000000;stroke-width:1.26448;stroke-linecap:round;stroke-linejoin:round;stroke-dasharray:none;stroke-opacity:1"
           d="m 153.58973,87.484768 c 0.0746,-0.12935 0.11764,-0.280966 0.11764,-0.441682 0,-0.495171 -0.3997,-0.892218 -0.8921,-0.892218"
           id="path40" /></g></g></g></svg>
